<svg id="Layer_1" xmlns="http://www.w3.org/2000/svg" viewBox="0 0 800 620"><style>.st0{enable-background:new ;} .st1{fill:#979797;} .st2{fill:#DADFE2;} .st3{fill:none;stroke:#414141;stroke-width:4;stroke-linecap:round;stroke-linejoin:round;} .st4{fill:none;stroke:#414141;stroke-width:4;stroke-linecap:round;stroke-linejoin:round;stroke-dasharray:4.8959,7.8334;} .st5{fill:none;stroke:#414141;stroke-width:4;stroke-linecap:round;stroke-linejoin:round;stroke-dasharray:4.8775,7.804;} .st6{fill:none;stroke:#414141;stroke-width:4;stroke-linecap:round;stroke-linejoin:round;stroke-dasharray:4.816,7.7056;} .st7{fill:none;stroke:#414141;stroke-width:4;stroke-linecap:round;stroke-linejoin:round;stroke-dasharray:5.0507,8.081;} .st8{fill:#FFFFFF;} .st9{fill:#FC8363;} .st10{fill:#404040;} .st11{fill:#FFFFFF;stroke:#414141;stroke-width:4;stroke-linejoin:round;stroke-miterlimit:10;} .st12{fill:#A58BC0;stroke:#414141;stroke-width:4;stroke-linecap:round;stroke-linejoin:round;stroke-miterlimit:10;} .st13{fill:none;stroke:#414141;stroke-width:4;stroke-linecap:round;stroke-linejoin:round;stroke-miterlimit:10;} .st14{fill:#FC8363;stroke:#404040;stroke-width:4;stroke-linecap:round;stroke-linejoin:round;} .st15{opacity:0.2;fill:#205081;enable-background:new ;} .st16{fill:none;stroke:#404040;stroke-width:4;stroke-linecap:round;stroke-linejoin:round;} .st17{fill:#FFFFFF;stroke:#404040;stroke-width:4;stroke-linecap:round;stroke-linejoin:round;} .st18{fill:#DADFE2;stroke:#414141;stroke-width:4.0863;stroke-linecap:round;stroke-linejoin:round;stroke-miterlimit:10;} .st19{fill:#FFFFFF;stroke:#414141;stroke-width:3.4513;stroke-linecap:round;stroke-linejoin:round;stroke-miterlimit:10;} .st20{opacity:0.2;fill:#414141;enable-background:new ;} .st21{fill:#FBBA1B;stroke:#414141;stroke-width:4;stroke-linecap:round;stroke-linejoin:round;stroke-miterlimit:10;} .st22{fill:#FFFFFF;stroke:#414141;stroke-width:4;stroke-linecap:round;stroke-linejoin:round;stroke-miterlimit:10;} .st23{fill:#FFFFFF;stroke:#404040;stroke-width:4;stroke-miterlimit:10;} .st24{fill:#FFFFFF;stroke:#404040;stroke-width:4;stroke-linecap:round;stroke-miterlimit:10;} .st25{fill:none;stroke:#414141;stroke-width:4;stroke-linejoin:round;stroke-miterlimit:10;stroke-opacity:0.2;} .st26{fill:none;stroke:#404040;stroke-width:4;stroke-linecap:round;stroke-linejoin:round;stroke-miterlimit:10;}</style><g id="Layer_1_1_"><g class="st0"><path class="st1" d="M337.5,30.1c0.1,1.3,1.2,2.4,2.6,2.4c2,0,2.9-1,2.9-3.1V28c-0.5,0.9-1.5,1.6-2.9,1.6c-2.6,0-4.4-1.9-4.4-4.7 c0-2.6,1.8-4.7,4.4-4.7c1.5,0,2.5,0.6,3,1.5v-1.3h1.9v8.9c0,2.4-1.2,4.8-4.8,4.8c-2.4,0-4.2-1.5-4.4-3.6L337.5,30.1z M343.2,24.9 c0-1.9-1.1-3.1-2.7-3.1c-1.7,0-2.8,1.2-2.8,3.1c0,1.9,1.1,3.1,2.8,3.1C342.1,28,343.2,26.7,343.2,24.9z"/><path class="st1" d="M349.9,15.4c0.8,0,1.4,0.6,1.4,1.4c0,0.7-0.6,1.3-1.4,1.3c-0.7,0-1.3-0.6-1.3-1.3 C348.6,16,349.2,15.4,349.9,15.4z M349,30v-9.6h1.9V30H349z"/><path class="st1" d="M357.6,20.4h2.1v1.7h-2.1v5c0,0.9,0.4,1.3,1.3,1.3c0.2,0,0.6,0,0.7-0.1v1.6c-0.2,0.1-0.6,0.2-1.3,0.2 c-1.6,0-2.7-1-2.7-2.7v-5.3h-1.8v-1.7h0.5c1,0,1.5-0.6,1.5-1.5v-1.6h1.7V20.4z"/><path class="st1" d="M370.3,25.2c0,2.2,1.4,3.4,2.9,3.4c1.8,0,2.5-1.2,2.7-2l1.7,0.7c-0.5,1.4-1.8,3-4.3,3c-2.8,0-4.9-2.2-4.9-5.1 c0-3,2.1-5.1,4.8-5.1c2.6,0,3.9,1.6,4.3,3.1l-1.7,0.7c-0.2-0.9-0.9-2-2.6-2C371.7,21.8,370.3,22.9,370.3,25.2z"/><path class="st1" d="M382.6,30h-1.9V15.5h1.9v6c0.7-1,1.8-1.4,2.9-1.4c2.3,0,3.4,1.7,3.4,3.8V30h-1.9v-5.8c0-1.3-0.6-2.4-2.2-2.4 c-1.4,0-2.2,1.1-2.2,2.5V30z"/><path class="st1" d="M401.4,27.3c-0.5,1.7-2.1,3-4.3,3c-2.6,0-4.8-1.9-4.8-5.1c0-3,2.2-5.1,4.6-5.1c3,0,4.6,2,4.6,5 c0,0.2,0,0.5,0,0.6h-7.2c0,1.7,1.3,2.9,2.9,2.9c1.6,0,2.3-0.9,2.7-1.9L401.4,27.3z M399.5,24.2c0-1.4-0.9-2.5-2.6-2.5 c-1.6,0-2.5,1.2-2.6,2.5H399.5z"/><path class="st1" d="M405.9,25.2c0,2.2,1.4,3.4,2.9,3.4c1.8,0,2.5-1.2,2.7-2l1.7,0.7c-0.5,1.4-1.8,3-4.3,3c-2.8,0-4.9-2.2-4.9-5.1 c0-3,2.1-5.1,4.8-5.1c2.6,0,3.9,1.6,4.3,3.1l-1.7,0.7c-0.2-0.9-0.9-2-2.6-2C407.3,21.8,405.9,22.9,405.9,25.2z"/><path class="st1" d="M420.9,24.4l4.2,5.6h-2.4l-3.1-4.2l-1.3,1.3V30h-1.9V15.5h1.9v9.1l4.2-4.3h2.6L420.9,24.4z"/><path class="st1" d="M436.5,25.2c0,2.9-2,5.1-4.9,5.1s-4.9-2.2-4.9-5.1c0-2.9,2-5.1,4.9-5.1S436.5,22.3,436.5,25.2z M434.5,25.2 c0-2.2-1.4-3.4-3-3.4s-3,1.2-3,3.4c0,2.2,1.4,3.4,3,3.4S434.5,27.4,434.5,25.2z"/><path class="st1" d="M443.3,30.3c-2.2,0-3.6-1.7-3.6-3.9v-6.1h1.9v5.8c0,1.3,0.6,2.5,2.2,2.5c1.5,0,2.3-1,2.3-2.5v-5.8h1.9v7.8 c0,0.8,0.1,1.4,0.1,1.8h-1.8c0-0.2-0.1-0.8-0.1-1.2C445.6,29.8,444.4,30.3,443.3,30.3z"/><path class="st1" d="M454.6,20.4h2.1v1.7h-2.1v5c0,0.9,0.4,1.3,1.3,1.3c0.2,0,0.6,0,0.7-0.1v1.6c-0.2,0.1-0.6,0.2-1.3,0.2 c-1.6,0-2.7-1-2.7-2.7v-5.3h-1.8v-1.7h0.5c1,0,1.5-0.6,1.5-1.5v-1.6h1.7V20.4z"/></g><path class="st2" d="M538.4 472.3L553.1 454.2 553.1 408.5 413 408.5 413 560.8 538.4 560.8z"/><path class="st3" d="M553.1 411L553.1 408.5 550.6 408.5"/><path class="st4" d="M542.8 408.5L419.4 408.5"/><path class="st3" d="M415.5 408.5L413 408.5 413 411"/><path class="st5" d="M413 418.8L413 554.4"/><path class="st3" d="M413 558.3L413 560.8 415.5 560.8"/><path class="st6" d="M423.2 560.8L532.1 560.8"/><path class="st3" d="M535.9 560.8L538.4 560.8 538.4 558.3"/><path class="st7" d="M538.4 550.2L538.4 472.3 553.1 454.2 553.1 415"/><path class="st8" d="M542.8,423.7l-10.4-5.1c-0.3-0.2-0.7-0.2-1,0l-10.4,5.1c-0.2,0.1-0.3,0.3-0.3,0.5v8.6 c0,0.2,0.1,0.4,0.3,0.5l10.4,5.1c0.3,0.2,0.7,0.2,1,0l10.4-5.1c0.2-0.1,0.3-0.3,0.3-0.5v-8.6C543.1,424,543,423.8,542.8,423.7z"/><path class="st9" d="M542.8,423.7l-3.4-1.7c-0.1,0-0.2,0-0.2,0l-10.8,5.3c-0.2,0.1-0.3,0.3-0.3,0.5v3.9c0,0.2-0.2,0.3-0.4,0.2 l-3-1.5c-0.1,0-0.2-0.1-0.2-0.2v-4.1c0-0.2,0.1-0.4,0.3-0.5l10.6-5.2c0.1-0.1,0.1-0.2,0-0.2l-3.1-1.5c-0.3-0.2-0.7-0.2-1,0 l-10.4,5.1c-0.2,0.1-0.3,0.3-0.3,0.5v8.6c0,0.2,0.1,0.4,0.3,0.5l10.4,5.1c0.3,0.2,0.7,0.2,1,0l10.4-5.1 c0.2-0.1,0.3-0.3,0.3-0.5v-8.6C543.1,424,543,423.8,542.8,423.7z"/><g class="st0"><path class="st10" d="M435.7,590.8l-0.1-1.5c-0.5,0.8-1.6,1.7-3.4,1.7c-2.7,0-5.2-1.9-5.2-5.5c0-3.6,2.6-5.5,5.3-5.5 c2.3,0,4.1,1.3,4.7,3.2l-1.3,0.6c-0.5-1.5-1.7-2.4-3.4-2.4c-1.9,0-3.8,1.4-3.8,4.2c0,2.8,1.8,4.2,3.7,4.2 c2.4,0,3.2-1.7,3.3-2.8h-3.7v-1.3h5.1v5.2H435.7z"/><path class="st10" d="M439.7,579.8c0.6,0,1,0.5,1,1c0,0.6-0.5,1-1,1c-0.6,0-1-0.5-1-1C438.7,580.2,439.2,579.8,439.7,579.8z M439,590.8v-7.2h1.4v7.2H439z"/><path class="st10" d="M444.7,583.5h1.6v1.3h-1.6v3.8c0,0.7,0.3,1,1,1c0.2,0,0.4,0,0.6-0.1v1.2c-0.1,0-0.5,0.1-1,0.1 c-1.2,0-2-0.8-2-2.1v-4h-1.4v-1.3h0.4c0.8,0,1.1-0.5,1.1-1.1v-1.2h1.3V583.5z"/><path class="st10" d="M452.1,590.8v-10.6h1.5v9.3h5v1.4H452.1z"/><path class="st10" d="M460.3,590.8v-10.6h6.5v1.4h-5v3.4h4.5v1.4h-4.5v4.5H460.3z"/><path class="st10" d="M474,583c-0.1-0.8-0.8-1.8-2.2-1.8c-1.2,0-2.1,0.8-2.1,1.8c0,0.8,0.5,1.3,1.4,1.5l1.6,0.3 c1.8,0.4,2.8,1.5,2.8,3c0,1.6-1.4,3.1-3.7,3.1c-2.6,0-3.8-1.6-4-3.2l1.4-0.5c0.1,1.2,0.9,2.3,2.5,2.3c1.5,0,2.2-0.8,2.2-1.7 c0-0.8-0.5-1.4-1.6-1.7l-1.5-0.3c-1.5-0.3-2.6-1.3-2.6-2.9c0-1.7,1.5-3.2,3.5-3.2c2.4,0,3.4,1.5,3.6,2.6L474,583z"/><path class="st10" d="M481.9,587.1c0,1.7,1,2.5,2.2,2.5c1.3,0,1.8-0.9,2-1.5l1.2,0.5c-0.3,1-1.4,2.2-3.3,2.2 c-2.1,0-3.6-1.6-3.6-3.8c0-2.2,1.6-3.8,3.6-3.8c1.9,0,2.9,1.2,3.2,2.3l-1.3,0.5c-0.2-0.7-0.7-1.5-1.9-1.5 C482.9,584.6,481.9,585.5,481.9,587.1z"/><path class="st10" d="M490.6,586.6l2-0.3c0.4-0.1,0.6-0.3,0.6-0.5c0-0.7-0.5-1.3-1.6-1.3c-1,0-1.5,0.6-1.6,1.5l-1.4-0.3 c0.2-1.4,1.4-2.3,3-2.3c2.2,0,3,1.2,3,2.6v3.6c0,0.6,0.1,1,0.1,1.2h-1.4c0-0.2-0.1-0.5-0.1-1c-0.3,0.5-1,1.2-2.3,1.2 c-1.5,0-2.4-1-2.4-2.2C488.5,587.5,489.4,586.8,490.6,586.6z M493.2,587.7v-0.3l-2.2,0.3c-0.6,0.1-1,0.4-1,1.1 c0,0.5,0.5,1,1.2,1C492.2,589.8,493.2,589.2,493.2,587.7z"/><path class="st10" d="M497.6,587.1c0,1.7,1,2.5,2.2,2.5c1.4,0,1.8-0.9,2-1.5l1.2,0.5c-0.3,1-1.4,2.2-3.3,2.2 c-2.1,0-3.6-1.6-3.6-3.8c0-2.2,1.6-3.8,3.6-3.8c1.9,0,2.9,1.2,3.2,2.3l-1.3,0.5c-0.2-0.7-0.7-1.5-1.9-1.5 C498.6,584.6,497.6,585.5,497.6,587.1z"/><path class="st10" d="M506.1,590.8h-1.4v-10.9h1.4v4.5c0.5-0.8,1.4-1,2.2-1c1.7,0,2.6,1.2,2.6,2.8v4.6h-1.4v-4.3 c0-1-0.4-1.8-1.7-1.8c-1.1,0-1.7,0.8-1.7,1.9V590.8z"/><path class="st10" d="M519.4,588.7c-0.4,1.3-1.6,2.3-3.2,2.3c-1.9,0-3.6-1.4-3.6-3.9c0-2.3,1.6-3.8,3.5-3.8 c2.2,0,3.5,1.5,3.5,3.8c0,0.2,0,0.4,0,0.5H514c0,1.3,1,2.2,2.2,2.2c1.2,0,1.8-0.6,2-1.5L519.4,588.7z M518,586.4 c0-1-0.7-1.8-2-1.8c-1.2,0-1.9,0.9-2,1.8H518z"/></g><path class="st11" d="M482.1,428.4v35.1h36.3v77.2H433V428.4H482.1"/><path class="st12" d="M482.1,428.4l36.3,35.2l-36.3-0.1L482.1,428.4L482.1,428.4z"/><path class="st13" d="M444 449.7L444 461.5"/><ellipse class="st13" cx="460.6" cy="455.6" rx="4.5" ry="6"/><path class="st13" d="M450.1 449.7L450.1 461.5"/><path class="st13" d="M471.1 449.7L471.1 461.5"/><path class="st13" d="M486 483.7L486 471.8"/><ellipse class="st13" cx="454.5" cy="477.5" rx="4.5" ry="6"/><path class="st13" d="M465 483.4L465 471.5"/><path class="st13" d="M444 483.4L444 471.5"/><ellipse class="st13" cx="475.5" cy="477.5" rx="4.5" ry="6"/><path class="st13" d="M492.1 471.8L492.1 483.7"/><ellipse class="st13" cx="502.8" cy="477.5" rx="4.5" ry="6"/><path class="st13" d="M480 527.7L480 515.9"/><ellipse class="st13" cx="454.5" cy="521.6" rx="4.5" ry="6"/><path class="st13" d="M444 527.4L444 515.6"/><ellipse class="st13" cx="469.5" cy="521.6" rx="4.5" ry="6"/><path class="st13" d="M486.1 515.9L486.1 527.7"/><path class="st13" d="M486.1 515.9L486.1 527.7"/><ellipse class="st13" cx="496.6" cy="521.6" rx="4.5" ry="6"/><path class="st13" d="M465.4 493.7L465.4 505.5"/><ellipse class="st13" cx="496.9" cy="499.8" rx="4.5" ry="6"/><path class="st13" d="M486.4 494L486.4 505.8"/><path class="st13" d="M507.4 494L507.4 505.8"/><ellipse class="st13" cx="475.9" cy="499.8" rx="4.5" ry="6"/><path class="st13" d="M459.1 505.5L459.1 493.7"/><ellipse class="st13" cx="448.5" cy="499.8" rx="4.5" ry="6"/><path class="st13" d="M507.4 527.4L507.4 515.6"/><path class="st14" d="M410 151.2L410 204.2 473.7 235.6 537.4 204.2 537.4 151.2"/><path class="st15" d="M537.4 151.2L537.4 204.2 473.7 235.6 473.7 182.6z"/><path class="st16" d="M473.7 182.6L473.7 235.6"/><path class="st14" d="M537.4 151.2L473.7 182.6 451.8 171.8 515.5 140.4z"/><path class="st14" d="M495.6 130.6L431.9 162 410 151.2 473.7 119.8z"/><path class="st17" d="M515.5 140.4L451.8 171.8 451.8 198.3 431.8 188.4 431.8 161.9 495.5 130.5z"/><g class="st0"><path class="st10" d="M455.9,275.6l-0.1-1.5c-0.5,0.8-1.6,1.7-3.4,1.7c-2.7,0-5.2-1.9-5.2-5.5c0-3.6,2.6-5.5,5.3-5.5 c2.3,0,4.1,1.3,4.7,3.2l-1.3,0.6c-0.5-1.5-1.7-2.4-3.4-2.4c-1.9,0-3.8,1.4-3.8,4.2c0,2.8,1.8,4.2,3.7,4.2 c2.4,0,3.2-1.7,3.3-2.8H452v-1.3h5.1v5.2H455.9z"/><path class="st10" d="M459.9,264.6c0.6,0,1,0.5,1,1c0,0.6-0.4,1-1,1c-0.6,0-1-0.5-1-1C458.9,265.1,459.4,264.6,459.9,264.6z M459.2,275.6v-7.2h1.4v7.2H459.2z"/><path class="st10" d="M464.9,268.4h1.6v1.3h-1.6v3.8c0,0.7,0.3,1,1,1c0.2,0,0.4,0,0.6-0.1v1.2c-0.1,0-0.5,0.1-1,0.1 c-1.2,0-2-0.8-2-2.1v-4h-1.4v-1.3h0.4c0.8,0,1.1-0.5,1.1-1.1v-1.2h1.3V268.4z"/><path class="st10" d="M472.2,275.6V265h1.5v9.3h5v1.4H472.2z"/><path class="st10" d="M480.5,275.6V265h6.5v1.4h-5v3.4h4.5v1.4h-4.5v4.5H480.5z"/><path class="st10" d="M494.2,267.9c-0.1-0.8-0.8-1.8-2.2-1.8c-1.2,0-2.1,0.8-2.1,1.8c0,0.8,0.5,1.3,1.4,1.5l1.6,0.3 c1.8,0.4,2.8,1.5,2.8,3c0,1.6-1.4,3.1-3.7,3.1c-2.6,0-3.8-1.6-4-3.2l1.4-0.5c0.1,1.2,0.9,2.3,2.5,2.3c1.5,0,2.2-0.8,2.2-1.7 c0-0.8-0.5-1.4-1.6-1.7l-1.5-0.3c-1.5-0.3-2.6-1.3-2.6-2.9c0-1.7,1.5-3.2,3.5-3.2c2.4,0,3.4,1.5,3.6,2.6L494.2,267.9z"/></g><path class="st18" d="M428.6,209.3l-2.1-0.5c-0.5-0.1-0.9-0.5-1.1-0.9v-0.1c-0.2-0.5-0.2-1,0.1-1.5l1.1-1.8 c0.4-0.7,0.3-1.6-0.3-2.2l-4.4-4.4c-0.6-0.6-1.5-0.7-2.2-0.3l-1.8,1.1c-0.5,0.3-1,0.3-1.5,0.1l0,0c-0.5-0.2-0.9-0.6-1-1.1 l-0.5-2.1c-0.2-0.8-0.9-1.4-1.7-1.4H407c-0.8,0-1.6,0.6-1.7,1.4l-0.5,2.1c-0.1,0.5-0.5,0.9-0.9,1.1h-0.1c-0.5,0.2-1,0.2-1.5-0.1 l-1.8-1.1c-0.7-0.4-1.6-0.3-2.2,0.3l-4.4,4.4c-0.6,0.6-0.7,1.5-0.3,2.2l1.1,1.8c0.3,0.5,0.3,1,0.1,1.5l0,0 c-0.2,0.5-0.6,0.9-1.1,1l-2.1,0.5c-0.8,0.2-1.4,0.9-1.4,1.7v6.2c0,0.8,0.6,1.6,1.4,1.7l2.1,0.5c0.5,0.1,0.9,0.5,1.1,0.9v0.1 c0.2,0.5,0.2,1-0.1,1.5l-1.1,1.8c-0.4,0.7-0.3,1.6,0.3,2.2l4.4,4.4c0.6,0.6,1.5,0.7,2.2,0.3l1.8-1.1c0.5-0.3,1-0.3,1.5-0.1l0,0 c0.5,0.2,0.9,0.6,1,1.1l0.5,2.1c0.2,0.8,0.9,1.4,1.7,1.4h6.2c0.8,0,1.6-0.6,1.7-1.4l0.5-2.1c0.1-0.5,0.5-0.9,0.9-1.1h0.1 c0.5-0.2,1-0.2,1.5,0.1l1.8,1.1c0.7,0.4,1.6,0.3,2.2-0.3l4.4-4.4c0.6-0.6,0.7-1.5,0.3-2.2l-1.1-1.8c-0.3-0.5-0.3-1-0.1-1.5l0,0 c0.2-0.5,0.6-0.9,1.1-1l2.1-0.5c0.8-0.2,1.4-0.9,1.4-1.7V211C430,210.2,429.4,209.5,428.6,209.3z M410,221.3 c-3.9,0-7.1-3.2-7.1-7.1c0-3.9,3.2-7.1,7.1-7.1s7.1,3.2,7.1,7.1S414,221.3,410,221.3z"/><circle class="st19" cx="410" cy="214.2" r="7.1"/><path class="st2" d="M766.7 157.2L781.5 139.1 781.5 93.4 641.3 93.4 641.3 245.7 766.7 245.7z"/><path class="st3" d="M781.5 95.9L781.5 93.4 779 93.4"/><path class="st4" d="M771.1 93.4L647.7 93.4"/><path class="st3" d="M643.8 93.4L641.3 93.4 641.3 95.9"/><path class="st5" d="M641.3 103.7L641.3 239.3"/><path class="st3" d="M641.3 243.2L641.3 245.7 643.8 245.7"/><path class="st6" d="M651.5 245.7L760.4 245.7"/><path class="st3" d="M764.2 245.7L766.7 245.7 766.7 243.2"/><path class="st7" d="M766.7 235.1L766.7 157.2 781.5 139.1 781.5 99.9"/><path class="st20" d="M767.8 101.4H773.5V132.9H767.8z"/><g class="st0"><path class="st10" d="M662.2,265h1.5l-3,10.6h-1.5l-2.8-8.6l-2.7,8.6h-1.5l-3.1-10.6h1.5l2.3,8.3l2.7-8.3h1.5l2.7,8.4 L662.2,265z"/><path class="st10" d="M671.4,272c0,2.2-1.5,3.8-3.7,3.8c-2.2,0-3.7-1.6-3.7-3.8c0-2.2,1.5-3.8,3.7-3.8 C669.9,268.2,671.4,269.8,671.4,272z M670,272c0-1.7-1-2.6-2.2-2.6c-1.2,0-2.2,0.9-2.2,2.6c0,1.7,1,2.6,2.2,2.6 C668.9,274.6,670,273.7,670,272z"/><path class="st10" d="M677.2,269.8c-0.2,0-0.4,0-0.6,0c-1.2,0-2,0.6-2,2.2v3.6h-1.4v-7.2h1.4v1.3c0.5-1.1,1.4-1.4,2.2-1.4 c0.2,0,0.4,0,0.5,0V269.8z"/><path class="st10" d="M682.1,271.4l3.1,4.2h-1.8l-2.4-3.2l-1,1v2.2h-1.4v-10.9h1.4v6.8l3.1-3.2h2L682.1,271.4z"/><path class="st10" d="M687.3,264.6c0.6,0,1,0.5,1,1c0,0.6-0.5,1-1,1c-0.6,0-1-0.5-1-1C686.3,265.1,686.7,264.6,687.3,264.6z M686.6,275.6v-7.2h1.4v7.2H686.6z"/><path class="st10" d="M691.8,275.6h-1.4v-7.2h1.4v1c0.5-0.9,1.4-1.2,2.2-1.2c1.7,0,2.6,1.2,2.6,2.8v4.6h-1.4v-4.3 c0-1-0.4-1.8-1.7-1.8c-1.1,0-1.7,0.9-1.7,2V275.6z"/><path class="st10" d="M699.7,275.7c0.1,1,0.9,1.8,2,1.8c1.5,0,2.2-0.8,2.2-2.3v-1c-0.3,0.7-1.1,1.2-2.2,1.2 c-1.9,0-3.3-1.5-3.3-3.5c0-2,1.3-3.5,3.3-3.5c1.1,0,1.9,0.4,2.2,1.1v-1h1.4v6.7c0,1.8-0.9,3.6-3.6,3.6c-1.8,0-3.2-1.1-3.3-2.7 L699.7,275.7z M703.9,271.8c0-1.4-0.8-2.3-2.1-2.3c-1.2,0-2.1,0.9-2.1,2.3c0,1.4,0.8,2.3,2.1,2.3 C703.1,274.1,703.9,273.2,703.9,271.8z"/><path class="st10" d="M712.1,272c0,1.7,1,2.5,2.2,2.5c1.3,0,1.8-0.9,2-1.5l1.2,0.5c-0.3,1-1.4,2.2-3.3,2.2 c-2.1,0-3.6-1.6-3.6-3.8c0-2.2,1.6-3.8,3.6-3.8c1.9,0,2.9,1.2,3.2,2.3l-1.3,0.5c-0.2-0.7-0.7-1.5-1.9-1.5 C713.1,269.5,712.1,270.3,712.1,272z"/><path class="st10" d="M725.9,272c0,2.2-1.5,3.8-3.7,3.8c-2.2,0-3.7-1.6-3.7-3.8c0-2.2,1.5-3.8,3.7-3.8 C724.4,268.2,725.9,269.8,725.9,272z M724.5,272c0-1.7-1-2.6-2.2-2.6c-1.2,0-2.2,0.9-2.2,2.6c0,1.7,1,2.6,2.2,2.6 C723.4,274.6,724.5,273.7,724.5,272z"/><path class="st10" d="M727.7,278.5v-10.1h1.4v1.1c0.4-0.7,1.2-1.3,2.4-1.3c2.2,0,3.3,1.7,3.3,3.8c0,2.1-1.2,3.8-3.4,3.8 c-1.1,0-1.9-0.5-2.3-1.2v3.8H727.7z M731.2,269.5c-1.3,0-2.1,1.1-2.1,2.5c0,1.5,0.9,2.5,2.1,2.5c1.3,0,2.1-1.1,2.1-2.5 C733.4,270.6,732.6,269.5,731.2,269.5z"/><path class="st10" d="M736.6,278.6l1.8-3.8l-3.1-6.4h1.6l2.2,5l2.2-5h1.5l-4.7,10.2H736.6z"/></g><path class="st11" d="M710.4,113.4v35.1h36.3v77.2h-85.4V113.4H710.4"/><path class="st12" d="M710.4,113.4l36.3,35.2l-36.3-0.1V113.4z"/><path class="st13" d="M672.3 134.7L672.3 146.5"/><ellipse class="st13" cx="689" cy="140.6" rx="4.5" ry="6"/><path class="st13" d="M678.4 134.7L678.4 146.5"/><path class="st13" d="M699.4 134.7L699.4 146.5"/><path class="st13" d="M714.3 168.7L714.3 156.9"/><ellipse class="st13" cx="682.8" cy="162.5" rx="4.5" ry="6"/><path class="st13" d="M693.3 168.4L693.3 156.5"/><path class="st13" d="M672.3 168.4L672.3 156.5"/><ellipse class="st13" cx="703.8" cy="162.5" rx="4.5" ry="6"/><path class="st13" d="M720.4 156.9L720.4 168.7"/><ellipse class="st13" cx="731.2" cy="162.5" rx="4.5" ry="6"/><path class="st13" d="M708.3 212.7L708.3 200.9"/><ellipse class="st13" cx="682.8" cy="206.6" rx="4.5" ry="6"/><path class="st13" d="M672.3 212.4L672.3 200.6"/><ellipse class="st13" cx="697.8" cy="206.6" rx="4.5" ry="6"/><path class="st13" d="M714.4 200.9L714.4 212.7"/><path class="st13" d="M714.4 200.9L714.4 212.7"/><ellipse class="st13" cx="725" cy="206.6" rx="4.5" ry="6"/><path class="st13" d="M693.7 178.7L693.7 190.5"/><ellipse class="st13" cx="725.2" cy="184.8" rx="4.5" ry="6"/><path class="st13" d="M714.7 179L714.7 190.8"/><path class="st13" d="M735.7 179L735.7 190.8"/><ellipse class="st13" cx="704.2" cy="184.8" rx="4.5" ry="6"/><path class="st13" d="M687.4 190.5L687.4 178.7"/><ellipse class="st13" cx="676.8" cy="184.8" rx="4.5" ry="6"/><path class="st13" d="M735.7 212.4L735.7 200.6"/><g><path class="st2" d="M288.5 157.2L303.3 139.1 303.3 93.4 163.1 93.4 163.1 245.7 288.5 245.7z"/><path class="st3" d="M303.3 95.9L303.3 93.4 300.8 93.4"/><path class="st4" d="M292.9 93.4L169.5 93.4"/><path class="st3" d="M165.6 93.4L163.1 93.4 163.1 95.9"/><path class="st5" d="M163.1 103.7L163.1 239.3"/><path class="st3" d="M163.1 243.2L163.1 245.7 165.6 245.7"/><path class="st6" d="M173.3 245.7L282.2 245.7"/><path class="st3" d="M286 245.7L288.5 245.7 288.5 243.2"/><path class="st7" d="M288.5 235.1L288.5 157.2 303.3 139.1 303.3 99.9"/><path class="st11" d="M232.2,113.4v35.1h36.3v77.2h-85.4V113.4H232.2"/><path class="st21" d="M232.2,113.4l36.3,35.2l-36.3-0.1V113.4z"/><path class="st22" d="M205.4,166.6c-2.3,1.9-8.2,5.1-8.2,14.1s7.3,16.4,16.4,16.4h12.3c2.3,0,4.1-1.8,4.1-4.1 s-1.8-4.1-4.1-4.1h2c2.3,0,4.1-1.8,4.1-4.1s-1.8-4.1-4.1-4.1h2c2.3,0,4.1-1.8,4.1-4.1s-1.8-4.1-4.1-4.1h20.4 c2.3,0,4.1-1.8,4.1-4.1s-1.8-4.1-4.1-4.1h-29.6l3.6-3c1.7-1.5,2-4,0.5-5.8c-1.5-1.7-4-2-5.8-0.5L205.4,166.6z"/><path class="st13" d="M229.9 172.5L225.8 172.5"/><path class="st13" d="M227.9 180.6L225.8 180.6"/><path class="st13" d="M225.8 188.8L223.8 188.8"/><path class="st22" d="M225.8,172.5H221c-2.3,0-4.1,1.8-4.1,4.1s1.8,4.1,4.1,4.1h4.8"/><path class="st22" d="M223.8,180.6H219c-2.3,0-4.1,1.8-4.1,4.1s1.8,4.1,4.1,4.1h4.8"/><path class="st22" d="M221.4,188.8h-4.8c-2.3,0-4.1,1.8-4.1,4.1s1.8,4.1,4.1,4.1h4.8"/><path class="st13" d="M222.1 163.2L218.5 166.2"/><path class="st8" d="M292.9,112.9l-9.1-9.1c-0.5-0.5-1.4-0.5-1.9,0l0,0l-9.1,9.1c-0.5,0.5-0.5,1.4,0,1.9l0,0l9.1,9.1 c0.5,0.5,1.4,0.5,1.9,0l0,0l9.1-9.1C293.4,114.2,293.4,113.4,292.9,112.9L292.9,112.9z"/><path class="st9" d="M292.9,112.9l-9.1-9.1c-0.5-0.5-1.4-0.5-1.9,0l0,0l-1.9,1.9l2.4,2.4c0.8-0.3,1.7,0.2,2,1 c0.1,0.3,0.1,0.7,0,1l2.3,2.3c0.8-0.3,1.7,0.2,2,1s-0.2,1.7-1,2s-1.7-0.2-2-1c-0.1-0.4-0.1-0.8,0-1.1l-2.2-2.2v5.7 c0.8,0.4,1.1,1.4,0.7,2.1c-0.4,0.8-1.4,1.1-2.1,0.7s-1.1-1.4-0.7-2.1c0.2-0.4,0.5-0.6,0.8-0.8V111c-0.2-0.1-0.4-0.2-0.5-0.3 c-0.5-0.5-0.6-1.2-0.3-1.7l-2.4-2.4l-6.2,6.2c-0.5,0.5-0.5,1.4,0,1.9l0,0l9.1,9.1c0.5,0.5,1.4,0.5,1.9,0l0,0l9.1-9.1 C293.4,114.2,293.4,113.4,292.9,112.9L292.9,112.9z"/><g class="st0"><path class="st10" d="M206.9,275.7l-0.1-1.5c-0.5,0.8-1.6,1.7-3.4,1.7c-2.7,0-5.2-1.9-5.2-5.5c0-3.6,2.6-5.5,5.3-5.5 c2.3,0,4.1,1.3,4.7,3.2l-1.3,0.6c-0.5-1.5-1.7-2.4-3.4-2.4c-1.9,0-3.8,1.4-3.8,4.2c0,2.8,1.8,4.2,3.7,4.2 c2.4,0,3.2-1.7,3.3-2.8H203v-1.3h5.1v5.2H206.9z"/><path class="st10" d="M210.9,264.7c0.6,0,1,0.5,1,1c0,0.6-0.4,1-1,1c-0.6,0-1-0.5-1-1C209.9,265.2,210.3,264.7,210.9,264.7z M210.2,275.7v-7.2h1.4v7.2H210.2z"/><path class="st10" d="M215.9,268.5h1.6v1.3h-1.6v3.8c0,0.7,0.3,1,1,1c0.2,0,0.4,0,0.6-0.1v1.2c-0.1,0-0.5,0.1-1,0.1 c-1.2,0-2-0.8-2-2.1v-4h-1.4v-1.3h0.4c0.8,0,1.1-0.5,1.1-1.1v-1.2h1.3V268.5z"/><path class="st10" d="M227.1,269.9c-0.2,0-0.4,0-0.6,0c-1.2,0-2,0.6-2,2.2v3.6h-1.4v-7.2h1.4v1.3c0.5-1.1,1.4-1.4,2.2-1.4 c0.2,0,0.4,0,0.5,0V269.9z"/><path class="st10" d="M234.8,273.6c-0.4,1.3-1.6,2.3-3.2,2.3c-1.9,0-3.6-1.4-3.6-3.9c0-2.3,1.6-3.8,3.5-3.8 c2.2,0,3.5,1.5,3.5,3.8c0,0.2,0,0.4,0,0.5h-5.4c0,1.3,1,2.2,2.2,2.2c1.2,0,1.8-0.6,2-1.5L234.8,273.6z M233.4,271.3 c0-1-0.7-1.8-2-1.8c-1.2,0-1.9,0.9-2,1.8H233.4z"/><path class="st10" d="M236.6,278.5v-10.1h1.4v1.1c0.4-0.7,1.2-1.3,2.4-1.3c2.2,0,3.3,1.7,3.3,3.8c0,2.1-1.2,3.8-3.4,3.8 c-1.1,0-1.9-0.5-2.3-1.2v3.8H236.6z M240.1,269.5c-1.3,0-2.1,1.1-2.1,2.5c0,1.5,0.9,2.5,2.1,2.5c1.3,0,2.1-1.1,2.1-2.5 C242.3,270.6,241.5,269.5,240.1,269.5z"/><path class="st10" d="M252.3,272.1c0,2.2-1.5,3.8-3.7,3.8c-2.2,0-3.7-1.6-3.7-3.8c0-2.2,1.5-3.8,3.7-3.8 C250.8,268.2,252.3,269.9,252.3,272.1z M250.9,272.1c0-1.7-1-2.6-2.2-2.6c-1.2,0-2.2,0.9-2.2,2.6c0,1.7,1,2.6,2.2,2.6 C249.8,274.6,250.9,273.7,250.9,272.1z"/></g></g><g><path class="st23" d="M295.5,505.2c0.6-1.6,0.9-3.3,0.9-5c0-6-3.7-11.2-9-13.2c0-0.2,0-0.3,0-0.5c0-15.7-12.7-28.4-28.4-28.4l0,0 c-0.1-15.4-12.6-27.8-28-27.8c-2.4,0-4.7,0.3-6.8,0.8c-9.6-17.8-28.5-29.9-50.2-29.9c-23.6,0-43.8,14.3-52.5,34.7 c-1.5-0.3-3-0.5-4.6-0.5c-12.6,0-22.8,10.2-22.8,22.8c0,1.7,0.2,3.4,0.6,5.1c-17.2,8.3-29,25.9-29,46.2v51.3h221.7 c15.7,0,28.4-12.7,28.4-28.4C315.8,519.5,307.2,508.6,295.5,505.2z"/><path class="st23" d="M278.8,383.7c0-7.6-6.2-13.8-13.8-13.8c-7.6,0-13.8,6.1-13.8,13.8c-5.2,0-9.2,4.1-9.2,9.2 c-5.2,0-9.2,4.1-9.2,9.2v9.2h9.2h36.9c7.6,0,13.8-6.2,13.8-13.8C292.6,389.9,286.4,383.7,278.8,383.7z"/><path class="st14" d="M182.3 433.4L182.3 486.4 246 517.8 309.7 486.4 309.7 433.4"/><path class="st15" d="M309.7 433.4L309.7 486.4 246 517.8 246 464.8z"/><path class="st16" d="M246 464.8L246 517.8"/><path class="st14" d="M309.7 433.4L246 464.8 224.1 454 287.8 422.6z"/><path class="st14" d="M267.9 412.7L204.2 444.1 182.3 433.4 246 402z"/><path class="st17" d="M287.8 422.6L224.1 454 224.1 480.5 204.1 470.6 204.1 444.1 267.8 412.7z"/><path class="st24" d="M274.5,528.7c0-9.5-7.6-17.2-17.2-17.2c0-14.4-11.5-25.8-25.8-25.8c-14.2,0-25.8,11.5-25.8,25.8 c-19.1,0.1-34.4,15.6-34.4,34.4"/><path class="st11" d="M104.4,435.9v18.5h19.1V495H78.6v-59.1H104.4"/><path class="st25" d="M83.9 450.6L117.7 450.6"/><path class="st25" d="M83.9 460.6L117.7 460.6"/><path class="st25" d="M83.9 470.6L117.7 470.6"/><path class="st25" d="M83.9 480.6L117.7 480.6"/><path class="st12" d="M104.4,435.9l19.1,18.5l-19.1-0.1V435.9z"/><path class="st11" d="M87.8,448.7v18.5h19.1v40.6h-45v-59.1H87.8"/><path class="st25" d="M67.3 463.4L101 463.4"/><path class="st25" d="M67.3 473.4L101 473.4"/><path class="st25" d="M67.3 483.4L101 483.4"/><path class="st25" d="M67.3 493.4L101 493.4"/><path class="st12" d="M87.8,448.7l19.1,18.5l-19.1-0.1V448.7z"/><path class="st23" d="M154.3,553.8v19.4H38c-10.7,0-19.4-8.6-19.4-19.4c0-10.7,8.6-19.4,19.4-19.4c0-10.7,8.6-19.4,19.4-19.4 c0-16.2,13-29.1,29.1-29.1s29.1,13,29.1,29.1C137,515.1,154.3,532.5,154.3,553.8z"/><g class="st0"><path class="st10" d="M188.3,590.8l-0.1-1.5c-0.5,0.8-1.6,1.7-3.4,1.7c-2.7,0-5.2-1.9-5.2-5.5c0-3.6,2.6-5.5,5.3-5.5 c2.3,0,4.1,1.3,4.7,3.2l-1.3,0.6c-0.5-1.5-1.7-2.4-3.4-2.4c-1.9,0-3.8,1.4-3.8,4.2c0,2.8,1.8,4.2,3.7,4.2 c2.4,0,3.2-1.7,3.3-2.8h-3.7v-1.3h5.1v5.2H188.3z"/><path class="st10" d="M192.3,579.8c0.6,0,1,0.5,1,1c0,0.6-0.4,1-1,1c-0.6,0-1-0.5-1-1C191.3,580.2,191.7,579.8,192.3,579.8z M191.6,590.8v-7.2h1.4v7.2H191.6z"/><path class="st10" d="M197.3,583.5h1.6v1.3h-1.6v3.8c0,0.7,0.3,1,1,1c0.2,0,0.4,0,0.6-0.1v1.2c-0.1,0-0.5,0.1-1,0.1 c-1.2,0-2-0.8-2-2.1v-4h-1.4v-1.3h0.4c0.8,0,1.1-0.5,1.1-1.1v-1.2h1.3V583.5z"/><path class="st10" d="M204.6,590.8v-10.6h1.5v9.3h5v1.4H204.6z"/><path class="st10" d="M212.8,590.8v-10.6h6.5v1.4h-5v3.4h4.5v1.4h-4.5v4.5H212.8z"/><path class="st10" d="M226.5,583c-0.1-0.8-0.8-1.8-2.2-1.8c-1.2,0-2.1,0.8-2.1,1.8c0,0.8,0.5,1.3,1.4,1.5l1.6,0.3 c1.8,0.4,2.8,1.5,2.8,3c0,1.6-1.4,3.1-3.7,3.1c-2.6,0-3.8-1.6-4-3.2l1.4-0.5c0.1,1.2,0.9,2.3,2.5,2.3c1.5,0,2.2-0.8,2.2-1.7 c0-0.8-0.5-1.4-1.6-1.7l-1.5-0.3c-1.5-0.3-2.6-1.3-2.6-2.9c0-1.7,1.5-3.2,3.5-3.2c2.4,0,3.4,1.5,3.6,2.6L226.5,583z"/><path class="st10" d="M234.2,588.4c0.1,0.8,0.7,1.4,1.7,1.4c0.8,0,1.2-0.5,1.2-1c0-0.5-0.3-0.8-0.9-0.9l-1.2-0.3 c-1.1-0.2-1.8-1-1.8-2c0-1.2,1.2-2.3,2.6-2.3c2,0,2.6,1.3,2.7,1.9l-1.2,0.5c-0.1-0.4-0.4-1.2-1.5-1.2c-0.7,0-1.2,0.5-1.2,1 c0,0.4,0.3,0.7,0.8,0.9l1.2,0.3c1.3,0.3,2,1.1,2,2.1c0,1-0.9,2.2-2.6,2.2c-2,0-2.8-1.3-2.9-2.1L234.2,588.4z"/><path class="st10" d="M242.2,583.5h1.6v1.3h-1.6v3.8c0,0.7,0.3,1,1,1c0.2,0,0.4,0,0.6-0.1v1.2c-0.1,0-0.5,0.1-1,0.1 c-1.2,0-2-0.8-2-2.1v-4h-1.4v-1.3h0.4c0.8,0,1.1-0.5,1.1-1.1v-1.2h1.3V583.5z"/><path class="st10" d="M252.4,587.1c0,2.2-1.5,3.8-3.7,3.8c-2.2,0-3.7-1.6-3.7-3.8c0-2.2,1.5-3.8,3.7-3.8 C250.9,583.3,252.4,585,252.4,587.1z M250.9,587.1c0-1.7-1-2.6-2.2-2.6c-1.2,0-2.2,0.9-2.2,2.6c0,1.7,1,2.6,2.2,2.6 C249.9,589.7,250.9,588.8,250.9,587.1z"/><path class="st10" d="M258.2,585c-0.2,0-0.4,0-0.6,0c-1.2,0-2,0.6-2,2.2v3.6h-1.4v-7.2h1.4v1.3c0.5-1.1,1.4-1.4,2.2-1.4 c0.2,0,0.4,0,0.5,0V585z"/><path class="st10" d="M265.9,588.7c-0.4,1.3-1.6,2.3-3.2,2.3c-1.9,0-3.6-1.4-3.6-3.9c0-2.3,1.6-3.8,3.5-3.8 c2.2,0,3.5,1.5,3.5,3.8c0,0.2,0,0.4,0,0.5h-5.4c0,1.3,1,2.2,2.2,2.2c1.2,0,1.8-0.6,2-1.5L265.9,588.7z M264.5,586.4 c0-1-0.7-1.8-2-1.8c-1.2,0-1.9,0.9-2,1.8H264.5z"/></g></g><g><path class="st26" d="M371.5 185L323.3 185"/><path class="st26" d="M362.8 174.1L373.6 185 362.8 195.9"/></g><g><path class="st26" d="M610.2 185L562 185"/><path class="st26" d="M601.5 174.1L612.3 185 601.5 195.9"/></g><g><path class="st26" d="M381.5 495L333.3 495"/><path class="st26" d="M372.8 484.1L383.6 495 372.8 505.9"/></g><g><path class="st26" d="M473.7 320.5L473.7 368.7"/><path class="st26" d="M462.8 329.2L473.7 318.4 484.6 329.2"/></g></g></svg>