<?xml version="1.0" standalone="no"?>
<!DOCTYPE svg PUBLIC "-//W3C//DTD SVG 20010904//EN"
 "http://www.w3.org/TR/2001/REC-SVG-20010904/DTD/svg10.dtd">
<svg version="1.0" xmlns="http://www.w3.org/2000/svg"
 width="512.000000pt" height="512.000000pt" viewBox="0 0 512.000000 512.000000"
 preserveAspectRatio="xMidYMid meet">
<metadata>
Created by potrace 1.11, written by Peter Selinger 2001-2013
</metadata>
<g transform="translate(0.000000,512.000000) scale(0.100000,-0.100000)"
fill="#000000" stroke="none">
<path d="M4360 4923 c-50 -7 -146 -46 -195 -79 -27 -18 -816 -799 -1752 -1736
l-1702 -1703 -109 -255 c-60 -140 -174 -403 -252 -585 -180 -418 -164 -376
-136 -366 25 10 364 155 411 176 17 8 75 32 129 55 55 23 125 53 155 67 31 14
65 29 76 33 11 5 56 25 99 44 43 20 82 36 87 36 8 0 128 52 172 75 16 8 34 15
41 15 12 0 3386 3371 3439 3435 65 80 108 210 103 315 -4 84 -15 129 -49 199
-64 132 -190 234 -332 267 -28 7 -155 12 -185 7z"/>
</g>
</svg>
