<?xml version="1.0" encoding="utf-8"?>
<!-- Generator: Adobe Illustrator 19.1.0, SVG Export Plug-In . SVG Version: 6.00 Build 0)  -->
<svg version="1.1" id="Layer_1" xmlns="http://www.w3.org/2000/svg" xmlns:xlink="http://www.w3.org/1999/xlink" x="0px" y="0px"
	 viewBox="-32 338 546.5 118" style="enable-background:new -32 338 546.5 118;" xml:space="preserve">
<desc>一组相同的样本，但分类阈值有所降低。</desc>
<style type="text/css">
	.zhpvrlt-st0{font-family:'PingFangHK-Regular-B5pc-H';}
	.zhpvrlt-st1{font-size:11px;}
	.zhpvrlt-st2{fill:none;}
	.zhpvrlt-st3{fill:none;stroke:#424242;stroke-width:2.25;stroke-linejoin:round;stroke-miterlimit:14.3356;}
	.zhpvrlt-st4{fill:#FF0000;}
	.zhpvrlt-st5{fill:none;stroke:#000000;stroke-width:1.5;stroke-linejoin:round;stroke-miterlimit:14.3356;}
	.zhpvrlt-st6{fill:#00FF00;}
	.zhpvrlt-st7{fill:none;stroke:#424242;stroke-width:0.75;stroke-linejoin:round;stroke-miterlimit:14.3356;stroke-dasharray:3,2.25;}
	.zhpvrlt-st8{fill-opacity:0;}
	.zhpvrlt-st9{font-family:'ArialMT';}
	.zhpvrlt-st10{font-size:10px;}
	.zhpvrlt-st11{font-size:8px;}
</style>
<g>
	<text transform="matrix(1 0 0 1 121.5099 448.6099)" class="zhpvrlt-st0 zhpvrlt-st1">逻辑回归模型的输出</text>
</g>
<line class="zhpvrlt-st2" x1="-12.9" y1="428.5" x2="354.9" y2="428.5"/>
<line class="zhpvrlt-st3" x1="-12.9" y1="428.5" x2="354.9" y2="428.5"/>
<path class="zhpvrlt-st4" d="M-5.2,404L-5.2,404c0-1.5,1.3-2.6,2.9-2.6s2.9,1.2,2.9,2.6c0,1.5-1.3,2.6-2.9,2.6S-5.2,405.4-5.2,404z"/>
<path class="zhpvrlt-st5" d="M-5.2,404L-5.2,404c0-1.5,1.3-2.6,2.9-2.6s2.9,1.2,2.9,2.6c0,1.5-1.3,2.6-2.9,2.6S-5.2,405.4-5.2,404z"/>
<path class="zhpvrlt-st4" d="M6.8,404L6.8,404c0-1.5,1.3-2.6,2.9-2.6c1.6,0,2.9,1.2,2.9,2.6c0,1.5-1.3,2.6-2.9,2.6S6.8,405.4,6.8,404z"/>
<path class="zhpvrlt-st5" d="M6.8,404L6.8,404c0-1.5,1.3-2.6,2.9-2.6c1.6,0,2.9,1.2,2.9,2.6c0,1.5-1.3,2.6-2.9,2.6S6.8,405.4,6.8,404z"/>
<path class="zhpvrlt-st4" d="M18.8,404L18.8,404c0-1.5,1.3-2.6,2.9-2.6c1.6,0,2.9,1.2,2.9,2.6c0,1.5-1.3,2.6-2.9,2.6S18.8,405.4,18.8,404z"
	/>
<path class="zhpvrlt-st5" d="M18.8,404L18.8,404c0-1.5,1.3-2.6,2.9-2.6c1.6,0,2.9,1.2,2.9,2.6c0,1.5-1.3,2.6-2.9,2.6S18.8,405.4,18.8,404z"
	/>
<path class="zhpvrlt-st4" d="M30.8,404L30.8,404c0-1.5,1.3-2.6,2.9-2.6s2.9,1.2,2.9,2.6c0,1.5-1.3,2.6-2.9,2.6S30.8,405.4,30.8,404z"/>
<path class="zhpvrlt-st5" d="M30.8,404L30.8,404c0-1.5,1.3-2.6,2.9-2.6s2.9,1.2,2.9,2.6c0,1.5-1.3,2.6-2.9,2.6S30.8,405.4,30.8,404z"/>
<path class="zhpvrlt-st4" d="M42.8,404L42.8,404c0-1.5,1.3-2.6,2.9-2.6s2.9,1.2,2.9,2.6c0,1.5-1.3,2.6-2.9,2.6S42.8,405.4,42.8,404z"/>
<path class="zhpvrlt-st5" d="M42.8,404L42.8,404c0-1.5,1.3-2.6,2.9-2.6s2.9,1.2,2.9,2.6c0,1.5-1.3,2.6-2.9,2.6S42.8,405.4,42.8,404z"/>
<path class="zhpvrlt-st4" d="M54.8,404L54.8,404c0-1.5,1.3-2.6,2.9-2.6s2.9,1.2,2.9,2.6c0,1.5-1.3,2.6-2.9,2.6S54.8,405.4,54.8,404z"/>
<path class="zhpvrlt-st5" d="M54.8,404L54.8,404c0-1.5,1.3-2.6,2.9-2.6s2.9,1.2,2.9,2.6c0,1.5-1.3,2.6-2.9,2.6S54.8,405.4,54.8,404z"/>
<path class="zhpvrlt-st4" d="M66.8,404L66.8,404c0-1.5,1.3-2.6,2.9-2.6s2.9,1.2,2.9,2.6c0,1.5-1.3,2.6-2.9,2.6S66.8,405.4,66.8,404z"/>
<path class="zhpvrlt-st5" d="M66.8,404L66.8,404c0-1.5,1.3-2.6,2.9-2.6s2.9,1.2,2.9,2.6c0,1.5-1.3,2.6-2.9,2.6S66.8,405.4,66.8,404z"/>
<path class="zhpvrlt-st4" d="M78.8,404L78.8,404c0-1.5,1.3-2.6,2.9-2.6s2.9,1.2,2.9,2.6c0,1.5-1.3,2.6-2.9,2.6S78.8,405.4,78.8,404z"/>
<path class="zhpvrlt-st5" d="M78.8,404L78.8,404c0-1.5,1.3-2.6,2.9-2.6s2.9,1.2,2.9,2.6c0,1.5-1.3,2.6-2.9,2.6S78.8,405.4,78.8,404z"/>
<path class="zhpvrlt-st4" d="M6.8,404L6.8,404c0-1.5,1.3-2.6,2.9-2.6c1.6,0,2.9,1.2,2.9,2.6c0,1.5-1.3,2.6-2.9,2.6S6.8,405.4,6.8,404z"/>
<path class="zhpvrlt-st5" d="M6.8,404L6.8,404c0-1.5,1.3-2.6,2.9-2.6c1.6,0,2.9,1.2,2.9,2.6c0,1.5-1.3,2.6-2.9,2.6S6.8,405.4,6.8,404z"/>
<path class="zhpvrlt-st4" d="M18.8,404L18.8,404c0-1.5,1.3-2.6,2.9-2.6c1.6,0,2.9,1.2,2.9,2.6c0,1.5-1.3,2.6-2.9,2.6S18.8,405.4,18.8,404z"
	/>
<path class="zhpvrlt-st5" d="M18.8,404L18.8,404c0-1.5,1.3-2.6,2.9-2.6c1.6,0,2.9,1.2,2.9,2.6c0,1.5-1.3,2.6-2.9,2.6S18.8,405.4,18.8,404z"
	/>
<path class="zhpvrlt-st4" d="M30.8,404L30.8,404c0-1.5,1.3-2.6,2.9-2.6s2.9,1.2,2.9,2.6c0,1.5-1.3,2.6-2.9,2.6S30.8,405.4,30.8,404z"/>
<path class="zhpvrlt-st5" d="M30.8,404L30.8,404c0-1.5,1.3-2.6,2.9-2.6s2.9,1.2,2.9,2.6c0,1.5-1.3,2.6-2.9,2.6S30.8,405.4,30.8,404z"/>
<path class="zhpvrlt-st4" d="M42.8,404L42.8,404c0-1.5,1.3-2.6,2.9-2.6s2.9,1.2,2.9,2.6c0,1.5-1.3,2.6-2.9,2.6S42.8,405.4,42.8,404z"/>
<path class="zhpvrlt-st5" d="M42.8,404L42.8,404c0-1.5,1.3-2.6,2.9-2.6s2.9,1.2,2.9,2.6c0,1.5-1.3,2.6-2.9,2.6S42.8,405.4,42.8,404z"/>
<path class="zhpvrlt-st4" d="M54.8,404L54.8,404c0-1.5,1.3-2.6,2.9-2.6s2.9,1.2,2.9,2.6c0,1.5-1.3,2.6-2.9,2.6S54.8,405.4,54.8,404z"/>
<path class="zhpvrlt-st5" d="M54.8,404L54.8,404c0-1.5,1.3-2.6,2.9-2.6s2.9,1.2,2.9,2.6c0,1.5-1.3,2.6-2.9,2.6S54.8,405.4,54.8,404z"/>
<path class="zhpvrlt-st4" d="M66.8,404L66.8,404c0-1.5,1.3-2.6,2.9-2.6s2.9,1.2,2.9,2.6c0,1.5-1.3,2.6-2.9,2.6S66.8,405.4,66.8,404z"/>
<path class="zhpvrlt-st5" d="M66.8,404L66.8,404c0-1.5,1.3-2.6,2.9-2.6s2.9,1.2,2.9,2.6c0,1.5-1.3,2.6-2.9,2.6S66.8,405.4,66.8,404z"/>
<path class="zhpvrlt-st4" d="M78.8,404L78.8,404c0-1.5,1.3-2.6,2.9-2.6s2.9,1.2,2.9,2.6c0,1.5-1.3,2.6-2.9,2.6S78.8,405.4,78.8,404z"/>
<path class="zhpvrlt-st5" d="M78.8,404L78.8,404c0-1.5,1.3-2.6,2.9-2.6s2.9,1.2,2.9,2.6c0,1.5-1.3,2.6-2.9,2.6S78.8,405.4,78.8,404z"/>
<path class="zhpvrlt-st4" d="M90.8,404L90.8,404c0-1.5,1.3-2.6,2.9-2.6s2.9,1.2,2.9,2.6c0,1.5-1.3,2.6-2.9,2.6S90.8,405.4,90.8,404z"/>
<path class="zhpvrlt-st5" d="M90.8,404L90.8,404c0-1.5,1.3-2.6,2.9-2.6s2.9,1.2,2.9,2.6c0,1.5-1.3,2.6-2.9,2.6S90.8,405.4,90.8,404z"/>
<path class="zhpvrlt-st4" d="M6.8,404L6.8,404c0-1.5,1.3-2.6,2.9-2.6c1.6,0,2.9,1.2,2.9,2.6c0,1.5-1.3,2.6-2.9,2.6S6.8,405.4,6.8,404z"/>
<path class="zhpvrlt-st5" d="M6.8,404L6.8,404c0-1.5,1.3-2.6,2.9-2.6c1.6,0,2.9,1.2,2.9,2.6c0,1.5-1.3,2.6-2.9,2.6S6.8,405.4,6.8,404z"/>
<path class="zhpvrlt-st4" d="M18.8,404L18.8,404c0-1.5,1.3-2.6,2.9-2.6c1.6,0,2.9,1.2,2.9,2.6c0,1.5-1.3,2.6-2.9,2.6S18.8,405.4,18.8,404z"
	/>
<path class="zhpvrlt-st5" d="M18.8,404L18.8,404c0-1.5,1.3-2.6,2.9-2.6c1.6,0,2.9,1.2,2.9,2.6c0,1.5-1.3,2.6-2.9,2.6S18.8,405.4,18.8,404z"
	/>
<path class="zhpvrlt-st4" d="M30.8,404L30.8,404c0-1.5,1.3-2.6,2.9-2.6s2.9,1.2,2.9,2.6c0,1.5-1.3,2.6-2.9,2.6S30.8,405.4,30.8,404z"/>
<path class="zhpvrlt-st5" d="M30.8,404L30.8,404c0-1.5,1.3-2.6,2.9-2.6s2.9,1.2,2.9,2.6c0,1.5-1.3,2.6-2.9,2.6S30.8,405.4,30.8,404z"/>
<path class="zhpvrlt-st4" d="M42.8,404L42.8,404c0-1.5,1.3-2.6,2.9-2.6s2.9,1.2,2.9,2.6c0,1.5-1.3,2.6-2.9,2.6S42.8,405.4,42.8,404z"/>
<path class="zhpvrlt-st5" d="M42.8,404L42.8,404c0-1.5,1.3-2.6,2.9-2.6s2.9,1.2,2.9,2.6c0,1.5-1.3,2.6-2.9,2.6S42.8,405.4,42.8,404z"/>
<path class="zhpvrlt-st4" d="M54.8,404L54.8,404c0-1.5,1.3-2.6,2.9-2.6s2.9,1.2,2.9,2.6c0,1.5-1.3,2.6-2.9,2.6S54.8,405.4,54.8,404z"/>
<path class="zhpvrlt-st5" d="M54.8,404L54.8,404c0-1.5,1.3-2.6,2.9-2.6s2.9,1.2,2.9,2.6c0,1.5-1.3,2.6-2.9,2.6S54.8,405.4,54.8,404z"/>
<path class="zhpvrlt-st4" d="M66.8,404L66.8,404c0-1.5,1.3-2.6,2.9-2.6s2.9,1.2,2.9,2.6c0,1.5-1.3,2.6-2.9,2.6S66.8,405.4,66.8,404z"/>
<path class="zhpvrlt-st5" d="M66.8,404L66.8,404c0-1.5,1.3-2.6,2.9-2.6s2.9,1.2,2.9,2.6c0,1.5-1.3,2.6-2.9,2.6S66.8,405.4,66.8,404z"/>
<path class="zhpvrlt-st4" d="M78.8,404L78.8,404c0-1.5,1.3-2.6,2.9-2.6s2.9,1.2,2.9,2.6c0,1.5-1.3,2.6-2.9,2.6S78.8,405.4,78.8,404z"/>
<path class="zhpvrlt-st5" d="M78.8,404L78.8,404c0-1.5,1.3-2.6,2.9-2.6s2.9,1.2,2.9,2.6c0,1.5-1.3,2.6-2.9,2.6S78.8,405.4,78.8,404z"/>
<path class="zhpvrlt-st4" d="M90.8,404L90.8,404c0-1.5,1.3-2.6,2.9-2.6s2.9,1.2,2.9,2.6c0,1.5-1.3,2.6-2.9,2.6S90.8,405.4,90.8,404z"/>
<path class="zhpvrlt-st5" d="M90.8,404L90.8,404c0-1.5,1.3-2.6,2.9-2.6s2.9,1.2,2.9,2.6c0,1.5-1.3,2.6-2.9,2.6S90.8,405.4,90.8,404z"/>
<path class="zhpvrlt-st4" d="M102.8,404L102.8,404c0-1.5,1.3-2.6,2.9-2.6s2.9,1.2,2.9,2.6c0,1.5-1.3,2.6-2.9,2.6S102.8,405.4,102.8,404z"/>
<path class="zhpvrlt-st5" d="M102.8,404L102.8,404c0-1.5,1.3-2.6,2.9-2.6s2.9,1.2,2.9,2.6c0,1.5-1.3,2.6-2.9,2.6S102.8,405.4,102.8,404z"/>
<line class="zhpvrlt-st2" x1="-12.7" y1="415.1" x2="-12.7" y2="439.8"/>
<line class="zhpvrlt-st3" x1="-12.7" y1="415.1" x2="-12.7" y2="439.8"/>
<line class="zhpvrlt-st2" x1="354.9" y1="415.1" x2="354.9" y2="439.8"/>
<line class="zhpvrlt-st3" x1="354.9" y1="415.1" x2="354.9" y2="439.8"/>
<path class="zhpvrlt-st4" d="M114.8,404L114.8,404c0-1.5,1.3-2.6,2.9-2.6s2.9,1.2,2.9,2.6c0,1.5-1.3,2.6-2.9,2.6S114.8,405.4,114.8,404z"/>
<path class="zhpvrlt-st5" d="M114.8,404L114.8,404c0-1.5,1.3-2.6,2.9-2.6s2.9,1.2,2.9,2.6c0,1.5-1.3,2.6-2.9,2.6S114.8,405.4,114.8,404z"/>
<path class="zhpvrlt-st4" d="M126.8,404L126.8,404c0-1.5,1.3-2.6,2.9-2.6s2.9,1.2,2.9,2.6c0,1.5-1.3,2.6-2.9,2.6S126.8,405.4,126.8,404z"/>
<path class="zhpvrlt-st5" d="M126.8,404L126.8,404c0-1.5,1.3-2.6,2.9-2.6s2.9,1.2,2.9,2.6c0,1.5-1.3,2.6-2.9,2.6S126.8,405.4,126.8,404z"/>
<path class="zhpvrlt-st4" d="M138.8,404L138.8,404c0-1.5,1.3-2.6,2.9-2.6s2.9,1.2,2.9,2.6c0,1.5-1.3,2.6-2.9,2.6S138.8,405.4,138.8,404z"/>
<path class="zhpvrlt-st5" d="M138.8,404L138.8,404c0-1.5,1.3-2.6,2.9-2.6s2.9,1.2,2.9,2.6c0,1.5-1.3,2.6-2.9,2.6S138.8,405.4,138.8,404z"/>
<path class="zhpvrlt-st4" d="M150.8,404L150.8,404c0-1.5,1.3-2.6,2.9-2.6s2.9,1.2,2.9,2.6c0,1.5-1.3,2.6-2.9,2.6S150.8,405.4,150.8,404z"/>
<path class="zhpvrlt-st5" d="M150.8,404L150.8,404c0-1.5,1.3-2.6,2.9-2.6s2.9,1.2,2.9,2.6c0,1.5-1.3,2.6-2.9,2.6S150.8,405.4,150.8,404z"/>
<path class="zhpvrlt-st4" d="M162.8,404L162.8,404c0-1.5,1.3-2.6,2.9-2.6s2.9,1.2,2.9,2.6c0,1.5-1.3,2.6-2.9,2.6S162.8,405.4,162.8,404z"/>
<path class="zhpvrlt-st5" d="M162.8,404L162.8,404c0-1.5,1.3-2.6,2.9-2.6s2.9,1.2,2.9,2.6c0,1.5-1.3,2.6-2.9,2.6S162.8,405.4,162.8,404z"/>
<path class="zhpvrlt-st4" d="M174.8,404L174.8,404c0-1.5,1.3-2.6,2.9-2.6s2.9,1.2,2.9,2.6c0,1.5-1.3,2.6-2.9,2.6S174.8,405.4,174.8,404z"/>
<path class="zhpvrlt-st5" d="M174.8,404L174.8,404c0-1.5,1.3-2.6,2.9-2.6s2.9,1.2,2.9,2.6c0,1.5-1.3,2.6-2.9,2.6S174.8,405.4,174.8,404z"/>
<path class="zhpvrlt-st4" d="M186.8,404L186.8,404c0-1.5,1.3-2.6,2.9-2.6s2.9,1.2,2.9,2.6c0,1.5-1.3,2.6-2.9,2.6S186.8,405.4,186.8,404z"/>
<path class="zhpvrlt-st5" d="M186.8,404L186.8,404c0-1.5,1.3-2.6,2.9-2.6s2.9,1.2,2.9,2.6c0,1.5-1.3,2.6-2.9,2.6S186.8,405.4,186.8,404z"/>
<path class="zhpvrlt-st4" d="M198.8,404L198.8,404c0-1.5,1.3-2.6,2.9-2.6s2.9,1.2,2.9,2.6c0,1.5-1.3,2.6-2.9,2.6S198.8,405.4,198.8,404z"/>
<path class="zhpvrlt-st5" d="M198.8,404L198.8,404c0-1.5,1.3-2.6,2.9-2.6s2.9,1.2,2.9,2.6c0,1.5-1.3,2.6-2.9,2.6S198.8,405.4,198.8,404z"/>
<path class="zhpvrlt-st4" d="M126.8,404L126.8,404c0-1.5,1.3-2.6,2.9-2.6s2.9,1.2,2.9,2.6c0,1.5-1.3,2.6-2.9,2.6S126.8,405.4,126.8,404z"/>
<path class="zhpvrlt-st5" d="M126.8,404L126.8,404c0-1.5,1.3-2.6,2.9-2.6s2.9,1.2,2.9,2.6c0,1.5-1.3,2.6-2.9,2.6S126.8,405.4,126.8,404z"/>
<path class="zhpvrlt-st4" d="M138.8,404L138.8,404c0-1.5,1.3-2.6,2.9-2.6s2.9,1.2,2.9,2.6c0,1.5-1.3,2.6-2.9,2.6S138.8,405.4,138.8,404z"/>
<path class="zhpvrlt-st5" d="M138.8,404L138.8,404c0-1.5,1.3-2.6,2.9-2.6s2.9,1.2,2.9,2.6c0,1.5-1.3,2.6-2.9,2.6S138.8,405.4,138.8,404z"/>
<path class="zhpvrlt-st4" d="M150.8,404L150.8,404c0-1.5,1.3-2.6,2.9-2.6s2.9,1.2,2.9,2.6c0,1.5-1.3,2.6-2.9,2.6S150.8,405.4,150.8,404z"/>
<path class="zhpvrlt-st5" d="M150.8,404L150.8,404c0-1.5,1.3-2.6,2.9-2.6s2.9,1.2,2.9,2.6c0,1.5-1.3,2.6-2.9,2.6S150.8,405.4,150.8,404z"/>
<path class="zhpvrlt-st4" d="M162.8,404L162.8,404c0-1.5,1.3-2.6,2.9-2.6s2.9,1.2,2.9,2.6c0,1.5-1.3,2.6-2.9,2.6S162.8,405.4,162.8,404z"/>
<path class="zhpvrlt-st5" d="M162.8,404L162.8,404c0-1.5,1.3-2.6,2.9-2.6s2.9,1.2,2.9,2.6c0,1.5-1.3,2.6-2.9,2.6S162.8,405.4,162.8,404z"/>
<path class="zhpvrlt-st4" d="M174.8,404L174.8,404c0-1.5,1.3-2.6,2.9-2.6s2.9,1.2,2.9,2.6c0,1.5-1.3,2.6-2.9,2.6S174.8,405.4,174.8,404z"/>
<path class="zhpvrlt-st5" d="M174.8,404L174.8,404c0-1.5,1.3-2.6,2.9-2.6s2.9,1.2,2.9,2.6c0,1.5-1.3,2.6-2.9,2.6S174.8,405.4,174.8,404z"/>
<path class="zhpvrlt-st4" d="M186.8,404L186.8,404c0-1.5,1.3-2.6,2.9-2.6s2.9,1.2,2.9,2.6c0,1.5-1.3,2.6-2.9,2.6S186.8,405.4,186.8,404z"/>
<path class="zhpvrlt-st5" d="M186.8,404L186.8,404c0-1.5,1.3-2.6,2.9-2.6s2.9,1.2,2.9,2.6c0,1.5-1.3,2.6-2.9,2.6S186.8,405.4,186.8,404z"/>
<path class="zhpvrlt-st4" d="M198.8,404L198.8,404c0-1.5,1.3-2.6,2.9-2.6s2.9,1.2,2.9,2.6c0,1.5-1.3,2.6-2.9,2.6S198.8,405.4,198.8,404z"/>
<path class="zhpvrlt-st5" d="M198.8,404L198.8,404c0-1.5,1.3-2.6,2.9-2.6s2.9,1.2,2.9,2.6c0,1.5-1.3,2.6-2.9,2.6S198.8,405.4,198.8,404z"/>
<path class="zhpvrlt-st4" d="M210.8,404L210.8,404c0-1.5,1.3-2.6,2.9-2.6s2.9,1.2,2.9,2.6c0,1.5-1.3,2.6-2.9,2.6S210.8,405.4,210.8,404z"/>
<path class="zhpvrlt-st5" d="M210.8,404L210.8,404c0-1.5,1.3-2.6,2.9-2.6s2.9,1.2,2.9,2.6c0,1.5-1.3,2.6-2.9,2.6S210.8,405.4,210.8,404z"/>
<path class="zhpvrlt-st4" d="M126.8,404L126.8,404c0-1.5,1.3-2.6,2.9-2.6s2.9,1.2,2.9,2.6c0,1.5-1.3,2.6-2.9,2.6S126.8,405.4,126.8,404z"/>
<path class="zhpvrlt-st5" d="M126.8,404L126.8,404c0-1.5,1.3-2.6,2.9-2.6s2.9,1.2,2.9,2.6c0,1.5-1.3,2.6-2.9,2.6S126.8,405.4,126.8,404z"/>
<path class="zhpvrlt-st4" d="M282.8,404L282.8,404c0-1.5,1.3-2.6,2.9-2.6s2.9,1.2,2.9,2.6c0,1.5-1.3,2.6-2.9,2.6
	C284.1,406.6,282.8,405.4,282.8,404z"/>
<path class="zhpvrlt-st5" d="M282.8,404L282.8,404c0-1.5,1.3-2.6,2.9-2.6s2.9,1.2,2.9,2.6c0,1.5-1.3,2.6-2.9,2.6
	C284.1,406.6,282.8,405.4,282.8,404z"/>
<path class="zhpvrlt-st4" d="M150.8,404L150.8,404c0-1.5,1.3-2.6,2.9-2.6s2.9,1.2,2.9,2.6c0,1.5-1.3,2.6-2.9,2.6S150.8,405.4,150.8,404z"/>
<path class="zhpvrlt-st5" d="M150.8,404L150.8,404c0-1.5,1.3-2.6,2.9-2.6s2.9,1.2,2.9,2.6c0,1.5-1.3,2.6-2.9,2.6S150.8,405.4,150.8,404z"/>
<path class="zhpvrlt-st4" d="M162.8,404L162.8,404c0-1.5,1.3-2.6,2.9-2.6s2.9,1.2,2.9,2.6c0,1.5-1.3,2.6-2.9,2.6S162.8,405.4,162.8,404z"/>
<path class="zhpvrlt-st5" d="M162.8,404L162.8,404c0-1.5,1.3-2.6,2.9-2.6s2.9,1.2,2.9,2.6c0,1.5-1.3,2.6-2.9,2.6S162.8,405.4,162.8,404z"/>
<path class="zhpvrlt-st4" d="M174.8,404L174.8,404c0-1.5,1.3-2.6,2.9-2.6s2.9,1.2,2.9,2.6c0,1.5-1.3,2.6-2.9,2.6S174.8,405.4,174.8,404z"/>
<path class="zhpvrlt-st5" d="M174.8,404L174.8,404c0-1.5,1.3-2.6,2.9-2.6s2.9,1.2,2.9,2.6c0,1.5-1.3,2.6-2.9,2.6S174.8,405.4,174.8,404z"/>
<path class="zhpvrlt-st4" d="M186.8,404L186.8,404c0-1.5,1.3-2.6,2.9-2.6s2.9,1.2,2.9,2.6c0,1.5-1.3,2.6-2.9,2.6S186.8,405.4,186.8,404z"/>
<path class="zhpvrlt-st5" d="M186.8,404L186.8,404c0-1.5,1.3-2.6,2.9-2.6s2.9,1.2,2.9,2.6c0,1.5-1.3,2.6-2.9,2.6S186.8,405.4,186.8,404z"/>
<path class="zhpvrlt-st4" d="M198.8,404L198.8,404c0-1.5,1.3-2.6,2.9-2.6s2.9,1.2,2.9,2.6c0,1.5-1.3,2.6-2.9,2.6S198.8,405.4,198.8,404z"/>
<path class="zhpvrlt-st5" d="M198.8,404L198.8,404c0-1.5,1.3-2.6,2.9-2.6s2.9,1.2,2.9,2.6c0,1.5-1.3,2.6-2.9,2.6S198.8,405.4,198.8,404z"/>
<path class="zhpvrlt-st4" d="M246.8,404L246.8,404c0-1.5,1.3-2.6,2.9-2.6s2.9,1.2,2.9,2.6c0,1.5-1.3,2.6-2.9,2.6
	C248.1,406.6,246.8,405.4,246.8,404z"/>
<path class="zhpvrlt-st5" d="M246.8,404L246.8,404c0-1.5,1.3-2.6,2.9-2.6s2.9,1.2,2.9,2.6c0,1.5-1.3,2.6-2.9,2.6
	C248.1,406.6,246.8,405.4,246.8,404z"/>
<path class="zhpvrlt-st6" d="M222.8,404L222.8,404c0-1.5,1.3-2.6,2.9-2.6s2.9,1.2,2.9,2.6c0,1.5-1.3,2.6-2.9,2.6S222.8,405.4,222.8,404z"/>
<path class="zhpvrlt-st5" d="M222.8,404L222.8,404c0-1.5,1.3-2.6,2.9-2.6s2.9,1.2,2.9,2.6c0,1.5-1.3,2.6-2.9,2.6S222.8,405.4,222.8,404z"/>
<path class="zhpvrlt-st6" d="M234.8,404L234.8,404c0-1.5,1.3-2.6,2.9-2.6s2.9,1.2,2.9,2.6c0,1.5-1.3,2.6-2.9,2.6
	C236.1,406.6,234.8,405.4,234.8,404z"/>
<path class="zhpvrlt-st5" d="M234.8,404L234.8,404c0-1.5,1.3-2.6,2.9-2.6s2.9,1.2,2.9,2.6c0,1.5-1.3,2.6-2.9,2.6
	C236.1,406.6,234.8,405.4,234.8,404z"/>
<path class="zhpvrlt-st6" d="M246.8,404L246.8,404c0-1.5,1.3-2.6,2.9-2.6s2.9,1.2,2.9,2.6c0,1.5-1.3,2.6-2.9,2.6
	C248.1,406.6,246.8,405.4,246.8,404z"/>
<path class="zhpvrlt-st5" d="M246.8,404L246.8,404c0-1.5,1.3-2.6,2.9-2.6s2.9,1.2,2.9,2.6c0,1.5-1.3,2.6-2.9,2.6
	C248.1,406.6,246.8,405.4,246.8,404z"/>
<path class="zhpvrlt-st6" d="M258.8,404L258.8,404c0-1.5,1.3-2.6,2.9-2.6s2.9,1.2,2.9,2.6c0,1.5-1.3,2.6-2.9,2.6
	C260.1,406.6,258.8,405.4,258.8,404z"/>
<path class="zhpvrlt-st5" d="M258.8,404L258.8,404c0-1.5,1.3-2.6,2.9-2.6s2.9,1.2,2.9,2.6c0,1.5-1.3,2.6-2.9,2.6
	C260.1,406.6,258.8,405.4,258.8,404z"/>
<path class="zhpvrlt-st6" d="M270.8,404L270.8,404c0-1.5,1.3-2.6,2.9-2.6s2.9,1.2,2.9,2.6c0,1.5-1.3,2.6-2.9,2.6
	C272.1,406.6,270.8,405.4,270.8,404z"/>
<path class="zhpvrlt-st5" d="M270.8,404L270.8,404c0-1.5,1.3-2.6,2.9-2.6s2.9,1.2,2.9,2.6c0,1.5-1.3,2.6-2.9,2.6
	C272.1,406.6,270.8,405.4,270.8,404z"/>
<path class="zhpvrlt-st6" d="M282.8,404L282.8,404c0-1.5,1.3-2.6,2.9-2.6s2.9,1.2,2.9,2.6c0,1.5-1.3,2.6-2.9,2.6
	C284.1,406.6,282.8,405.4,282.8,404z"/>
<path class="zhpvrlt-st5" d="M282.8,404L282.8,404c0-1.5,1.3-2.6,2.9-2.6s2.9,1.2,2.9,2.6c0,1.5-1.3,2.6-2.9,2.6
	C284.1,406.6,282.8,405.4,282.8,404z"/>
<path class="zhpvrlt-st6" d="M294.8,404L294.8,404c0-1.5,1.3-2.6,2.9-2.6s2.9,1.2,2.9,2.6c0,1.5-1.3,2.6-2.9,2.6
	C296.1,406.6,294.8,405.4,294.8,404z"/>
<path class="zhpvrlt-st5" d="M294.8,404L294.8,404c0-1.5,1.3-2.6,2.9-2.6s2.9,1.2,2.9,2.6c0,1.5-1.3,2.6-2.9,2.6
	C296.1,406.6,294.8,405.4,294.8,404z"/>
<path class="zhpvrlt-st6" d="M306.8,404L306.8,404c0-1.5,1.3-2.6,2.9-2.6s2.9,1.2,2.9,2.6c0,1.5-1.3,2.6-2.9,2.6
	C308.1,406.6,306.8,405.4,306.8,404z"/>
<path class="zhpvrlt-st5" d="M306.8,404L306.8,404c0-1.5,1.3-2.6,2.9-2.6s2.9,1.2,2.9,2.6c0,1.5-1.3,2.6-2.9,2.6
	C308.1,406.6,306.8,405.4,306.8,404z"/>
<path class="zhpvrlt-st6" d="M234.8,404L234.8,404c0-1.5,1.3-2.6,2.9-2.6s2.9,1.2,2.9,2.6c0,1.5-1.3,2.6-2.9,2.6
	C236.1,406.6,234.8,405.4,234.8,404z"/>
<path class="zhpvrlt-st5" d="M234.8,404L234.8,404c0-1.5,1.3-2.6,2.9-2.6s2.9,1.2,2.9,2.6c0,1.5-1.3,2.6-2.9,2.6
	C236.1,406.6,234.8,405.4,234.8,404z"/>
<path class="zhpvrlt-st6" d="M246.8,404L246.8,404c0-1.5,1.3-2.6,2.9-2.6s2.9,1.2,2.9,2.6c0,1.5-1.3,2.6-2.9,2.6
	C248.1,406.6,246.8,405.4,246.8,404z"/>
<path class="zhpvrlt-st5" d="M246.8,404L246.8,404c0-1.5,1.3-2.6,2.9-2.6s2.9,1.2,2.9,2.6c0,1.5-1.3,2.6-2.9,2.6
	C248.1,406.6,246.8,405.4,246.8,404z"/>
<path class="zhpvrlt-st6" d="M258.8,404L258.8,404c0-1.5,1.3-2.6,2.9-2.6s2.9,1.2,2.9,2.6c0,1.5-1.3,2.6-2.9,2.6
	C260.1,406.6,258.8,405.4,258.8,404z"/>
<path class="zhpvrlt-st5" d="M258.8,404L258.8,404c0-1.5,1.3-2.6,2.9-2.6s2.9,1.2,2.9,2.6c0,1.5-1.3,2.6-2.9,2.6
	C260.1,406.6,258.8,405.4,258.8,404z"/>
<path class="zhpvrlt-st6" d="M270.8,404L270.8,404c0-1.5,1.3-2.6,2.9-2.6s2.9,1.2,2.9,2.6c0,1.5-1.3,2.6-2.9,2.6
	C272.1,406.6,270.8,405.4,270.8,404z"/>
<path class="zhpvrlt-st5" d="M270.8,404L270.8,404c0-1.5,1.3-2.6,2.9-2.6s2.9,1.2,2.9,2.6c0,1.5-1.3,2.6-2.9,2.6
	C272.1,406.6,270.8,405.4,270.8,404z"/>
<path class="zhpvrlt-st6" d="M282.8,404L282.8,404c0-1.5,1.3-2.6,2.9-2.6s2.9,1.2,2.9,2.6c0,1.5-1.3,2.6-2.9,2.6
	C284.1,406.6,282.8,405.4,282.8,404z"/>
<path class="zhpvrlt-st5" d="M282.8,404L282.8,404c0-1.5,1.3-2.6,2.9-2.6s2.9,1.2,2.9,2.6c0,1.5-1.3,2.6-2.9,2.6
	C284.1,406.6,282.8,405.4,282.8,404z"/>
<path class="zhpvrlt-st6" d="M294.8,404L294.8,404c0-1.5,1.3-2.6,2.9-2.6s2.9,1.2,2.9,2.6c0,1.5-1.3,2.6-2.9,2.6
	C296.1,406.6,294.8,405.4,294.8,404z"/>
<path class="zhpvrlt-st5" d="M294.8,404L294.8,404c0-1.5,1.3-2.6,2.9-2.6s2.9,1.2,2.9,2.6c0,1.5-1.3,2.6-2.9,2.6
	C296.1,406.6,294.8,405.4,294.8,404z"/>
<path class="zhpvrlt-st6" d="M306.8,404L306.8,404c0-1.5,1.3-2.6,2.9-2.6s2.9,1.2,2.9,2.6c0,1.5-1.3,2.6-2.9,2.6
	C308.1,406.6,306.8,405.4,306.8,404z"/>
<path class="zhpvrlt-st5" d="M306.8,404L306.8,404c0-1.5,1.3-2.6,2.9-2.6s2.9,1.2,2.9,2.6c0,1.5-1.3,2.6-2.9,2.6
	C308.1,406.6,306.8,405.4,306.8,404z"/>
<path class="zhpvrlt-st6" d="M318.8,404L318.8,404c0-1.5,1.3-2.6,2.9-2.6s2.9,1.2,2.9,2.6c0,1.5-1.3,2.6-2.9,2.6
	C320.1,406.6,318.8,405.4,318.8,404z"/>
<path class="zhpvrlt-st5" d="M318.8,404L318.8,404c0-1.5,1.3-2.6,2.9-2.6s2.9,1.2,2.9,2.6c0,1.5-1.3,2.6-2.9,2.6
	C320.1,406.6,318.8,405.4,318.8,404z"/>
<path class="zhpvrlt-st6" d="M234.8,404L234.8,404c0-1.5,1.3-2.6,2.9-2.6s2.9,1.2,2.9,2.6c0,1.5-1.3,2.6-2.9,2.6
	C236.1,406.6,234.8,405.4,234.8,404z"/>
<path class="zhpvrlt-st5" d="M234.8,404L234.8,404c0-1.5,1.3-2.6,2.9-2.6s2.9,1.2,2.9,2.6c0,1.5-1.3,2.6-2.9,2.6
	C236.1,406.6,234.8,405.4,234.8,404z"/>
<path class="zhpvrlt-st6" d="M198.8,404L198.8,404c0-1.5,1.3-2.6,2.9-2.6s2.9,1.2,2.9,2.6c0,1.5-1.3,2.6-2.9,2.6S198.8,405.4,198.8,404z"/>
<path class="zhpvrlt-st5" d="M198.8,404L198.8,404c0-1.5,1.3-2.6,2.9-2.6s2.9,1.2,2.9,2.6c0,1.5-1.3,2.6-2.9,2.6S198.8,405.4,198.8,404z"/>
<path class="zhpvrlt-st6" d="M258.8,404L258.8,404c0-1.5,1.3-2.6,2.9-2.6s2.9,1.2,2.9,2.6c0,1.5-1.3,2.6-2.9,2.6
	C260.1,406.6,258.8,405.4,258.8,404z"/>
<path class="zhpvrlt-st5" d="M258.8,404L258.8,404c0-1.5,1.3-2.6,2.9-2.6s2.9,1.2,2.9,2.6c0,1.5-1.3,2.6-2.9,2.6
	C260.1,406.6,258.8,405.4,258.8,404z"/>
<path class="zhpvrlt-st6" d="M270.8,404L270.8,404c0-1.5,1.3-2.6,2.9-2.6s2.9,1.2,2.9,2.6c0,1.5-1.3,2.6-2.9,2.6
	C272.1,406.6,270.8,405.4,270.8,404z"/>
<path class="zhpvrlt-st5" d="M270.8,404L270.8,404c0-1.5,1.3-2.6,2.9-2.6s2.9,1.2,2.9,2.6c0,1.5-1.3,2.6-2.9,2.6
	C272.1,406.6,270.8,405.4,270.8,404z"/>
<path class="zhpvrlt-st6" d="M282.8,404L282.8,404c0-1.5,1.3-2.6,2.9-2.6s2.9,1.2,2.9,2.6c0,1.5-1.3,2.6-2.9,2.6
	C284.1,406.6,282.8,405.4,282.8,404z"/>
<path class="zhpvrlt-st5" d="M282.8,404L282.8,404c0-1.5,1.3-2.6,2.9-2.6s2.9,1.2,2.9,2.6c0,1.5-1.3,2.6-2.9,2.6
	C284.1,406.6,282.8,405.4,282.8,404z"/>
<path class="zhpvrlt-st6" d="M174.8,404L174.8,404c0-1.5,1.3-2.6,2.9-2.6s2.9,1.2,2.9,2.6c0,1.5-1.3,2.6-2.9,2.6S174.8,405.4,174.8,404z"/>
<path class="zhpvrlt-st5" d="M174.8,404L174.8,404c0-1.5,1.3-2.6,2.9-2.6s2.9,1.2,2.9,2.6c0,1.5-1.3,2.6-2.9,2.6S174.8,405.4,174.8,404z"/>
<path class="zhpvrlt-st6" d="M306.8,404L306.8,404c0-1.5,1.3-2.6,2.9-2.6s2.9,1.2,2.9,2.6c0,1.5-1.3,2.6-2.9,2.6
	C308.1,406.6,306.8,405.4,306.8,404z"/>
<path class="zhpvrlt-st5" d="M306.8,404L306.8,404c0-1.5,1.3-2.6,2.9-2.6s2.9,1.2,2.9,2.6c0,1.5-1.3,2.6-2.9,2.6
	C308.1,406.6,306.8,405.4,306.8,404z"/>
<path class="zhpvrlt-st6" d="M318.8,404L318.8,404c0-1.5,1.3-2.6,2.9-2.6s2.9,1.2,2.9,2.6c0,1.5-1.3,2.6-2.9,2.6
	C320.1,406.6,318.8,405.4,318.8,404z"/>
<path class="zhpvrlt-st5" d="M318.8,404L318.8,404c0-1.5,1.3-2.6,2.9-2.6s2.9,1.2,2.9,2.6c0,1.5-1.3,2.6-2.9,2.6
	C320.1,406.6,318.8,405.4,318.8,404z"/>
<path class="zhpvrlt-st6" d="M330.8,404L330.8,404c0-1.5,1.3-2.6,2.9-2.6s2.9,1.2,2.9,2.6c0,1.5-1.3,2.6-2.9,2.6
	C332.1,406.6,330.8,405.4,330.8,404z"/>
<path class="zhpvrlt-st5" d="M330.8,404L330.8,404c0-1.5,1.3-2.6,2.9-2.6s2.9,1.2,2.9,2.6c0,1.5-1.3,2.6-2.9,2.6
	C332.1,406.6,330.8,405.4,330.8,404z"/>
<path class="zhpvrlt-st4" d="M402.8,404L402.8,404c0-1.5,1.3-2.6,2.9-2.6s2.9,1.2,2.9,2.6c0,1.5-1.3,2.6-2.9,2.6
	C404.1,406.6,402.8,405.4,402.8,404z"/>
<path class="zhpvrlt-st5" d="M402.8,404L402.8,404c0-1.5,1.3-2.6,2.9-2.6s2.9,1.2,2.9,2.6c0,1.5-1.3,2.6-2.9,2.6
	C404.1,406.6,402.8,405.4,402.8,404z"/>
<g>
	<text transform="matrix(1 0 0 1 412.2598 406.7373)" class="zhpvrlt-st0 zhpvrlt-st1">实际上不是垃圾邮件</text>
</g>
<path class="zhpvrlt-st6" d="M402.8,422L402.8,422c0-1.5,1.3-2.6,2.9-2.6s2.9,1.2,2.9,2.6c0,1.5-1.3,2.6-2.9,2.6
	C404.1,424.6,402.8,423.4,402.8,422z"/>
<path class="zhpvrlt-st5" d="M402.8,422L402.8,422c0-1.5,1.3-2.6,2.9-2.6s2.9,1.2,2.9,2.6c0,1.5-1.3,2.6-2.9,2.6
	C404.1,424.6,402.8,423.4,402.8,422z"/>
<g>
	<text transform="matrix(1 0 0 1 412.2598 424.7373)" class="zhpvrlt-st0 zhpvrlt-st1">实际上是垃圾邮件</text>
</g>
<path class="zhpvrlt-st4" d="M258.8,404L258.8,404c0-1.5,1.3-2.6,2.9-2.6s2.9,1.2,2.9,2.6c0,1.5-1.3,2.6-2.9,2.6
	C260.1,406.6,258.8,405.4,258.8,404z"/>
<path class="zhpvrlt-st5" d="M258.8,404L258.8,404c0-1.5,1.3-2.6,2.9-2.6s2.9,1.2,2.9,2.6c0,1.5-1.3,2.6-2.9,2.6
	C260.1,406.6,258.8,405.4,258.8,404z"/>
<path class="zhpvrlt-st6" d="M342.8,404L342.8,404c0-1.5,1.3-2.6,2.9-2.6s2.9,1.2,2.9,2.6c0,1.5-1.3,2.6-2.9,2.6
	C344.1,406.6,342.8,405.4,342.8,404z"/>
<path class="zhpvrlt-st5" d="M342.8,404L342.8,404c0-1.5,1.3-2.6,2.9-2.6s2.9,1.2,2.9,2.6c0,1.5-1.3,2.6-2.9,2.6
	C344.1,406.6,342.8,405.4,342.8,404z"/>
<line class="zhpvrlt-st7" x1="207.7" y1="374" x2="207.7" y2="428"/>
<path class="zhpvrlt-st4" d="M234.8,404L234.8,404c0-1.5,1.3-2.6,2.9-2.6s2.9,1.2,2.9,2.6c0,1.5-1.3,2.6-2.9,2.6
	C236.1,406.6,234.8,405.4,234.8,404z"/>
<path class="zhpvrlt-st5" d="M234.8,404L234.8,404c0-1.5,1.3-2.6,2.9-2.6s2.9,1.2,2.9,2.6c0,1.5-1.3,2.6-2.9,2.6
	C236.1,406.6,234.8,405.4,234.8,404z"/>
<rect x="-27.2" y="431.8" class="zhpvrlt-st8" width="29.7" height="10"/>
<rect x="340" y="434.4" class="zhpvrlt-st8" width="29.7" height="10"/>
<text transform="matrix(1 0 0 1 -19.2544 448.6099)" class="zhpvrlt-st9 zhpvrlt-st10">0.0</text>
<text transform="matrix(1 0 0 1 347.9201 448.6099)" class="zhpvrlt-st9 zhpvrlt-st10">1.0</text>
<rect x="138.7" y="357.7" class="zhpvrlt-st2" width="138.2" height="33.8"/>
<text transform="matrix(1 0 0 1 185.74 365.6797)" class="zhpvrlt-st0 zhpvrlt-st1">分类阈值</text>
<text transform="matrix(1 0 0 1 -7.5919 416.8034)" class="zhpvrlt-st9 zhpvrlt-st11">TN</text>
<text transform="matrix(1 0 0 1 4.4081 416.8032)" class="zhpvrlt-st9 zhpvrlt-st11">TN</text>
<text transform="matrix(1 0 0 1 16.4081 416.8033)" class="zhpvrlt-st9 zhpvrlt-st11">TN</text>
<text transform="matrix(1 0 0 1 28.4081 416.8034)" class="zhpvrlt-st9 zhpvrlt-st11">TN</text>
<text transform="matrix(1 0 0 1 40.4081 416.8031)" class="zhpvrlt-st9 zhpvrlt-st11">TN</text>
<text transform="matrix(1 0 0 1 52.4081 416.8033)" class="zhpvrlt-st9 zhpvrlt-st11">TN</text>
<text transform="matrix(1 0 0 1 64.4081 416.8031)" class="zhpvrlt-st9 zhpvrlt-st11">TN</text>
<text transform="matrix(1 0 0 1 76.4081 416.8031)" class="zhpvrlt-st9 zhpvrlt-st11">TN</text>
<text transform="matrix(1 0 0 1 88.4081 416.8033)" class="zhpvrlt-st9 zhpvrlt-st11">TN</text>
<text transform="matrix(1 0 0 1 100.4081 416.8033)" class="zhpvrlt-st9 zhpvrlt-st11">TN</text>
<text transform="matrix(1 0 0 1 112.4081 416.8033)" class="zhpvrlt-st9 zhpvrlt-st11">TN</text>
<text transform="matrix(1 0 0 1 124.4081 416.8032)" class="zhpvrlt-st9 zhpvrlt-st11">TN</text>
<text transform="matrix(1 0 0 1 136.4081 416.8034)" class="zhpvrlt-st9 zhpvrlt-st11">TN</text>
<text transform="matrix(1 0 0 1 148.4081 416.8034)" class="zhpvrlt-st9 zhpvrlt-st11">TN</text>
<text transform="matrix(1 0 0 1 160.4081 416.8033)" class="zhpvrlt-st9 zhpvrlt-st11">TN</text>
<text transform="matrix(1 0 0 1 172.4081 416.8031)" class="zhpvrlt-st9 zhpvrlt-st11">FN</text>
<text transform="matrix(1 0 0 1 184.4005 416.8031)" class="zhpvrlt-st9 zhpvrlt-st11">TN</text>
<text transform="matrix(1 0 0 1 196.4215 416.803)" class="zhpvrlt-st9 zhpvrlt-st11">FN</text>
<text transform="matrix(1 0 0 1 208.4245 416.8031)" class="zhpvrlt-st9 zhpvrlt-st11">FP</text>
<text transform="matrix(1 0 0 1 220.5071 416.8034)" class="zhpvrlt-st9 zhpvrlt-st11">TP</text>
<text transform="matrix(1 0 0 1 232.424 416.8032)" class="zhpvrlt-st9 zhpvrlt-st11">FP</text>
<text transform="matrix(1 0 0 1 244.4478 416.8031)" class="zhpvrlt-st9 zhpvrlt-st11">TP</text>
<text transform="matrix(1 0 0 1 256.6288 416.8034)" class="zhpvrlt-st9 zhpvrlt-st11">FP</text>
<text transform="matrix(1 0 0 1 268.4378 416.803)" class="zhpvrlt-st9 zhpvrlt-st11">TP</text>
<text transform="matrix(1 0 0 1 280.3961 416.8034)" class="zhpvrlt-st9 zhpvrlt-st11">TP</text>
<text transform="matrix(1 0 0 1 292.3961 416.803)" class="zhpvrlt-st9 zhpvrlt-st11">TP</text>
<text transform="matrix(1 0 0 1 304.4378 416.8033)" class="zhpvrlt-st9 zhpvrlt-st11">TP</text>
<text transform="matrix(1 0 0 1 316.3961 416.8032)" class="zhpvrlt-st9 zhpvrlt-st11">TP</text>
<text transform="matrix(1 0 0 1 328.3961 416.803)" class="zhpvrlt-st9 zhpvrlt-st11">TP</text>
<text transform="matrix(1 0 0 1 340.4378 416.8032)" class="zhpvrlt-st9 zhpvrlt-st11">TP</text>
</svg>
